<?xml version="1.0" encoding="UTF-8"?><svg id="Layer_1" xmlns="http://www.w3.org/2000/svg" xmlns:xlink="http://www.w3.org/1999/xlink" viewBox="0 0 850.39 193.68"><defs><style>.cls-1{fill:none;}.cls-2{clip-path:url(#clippath);}.cls-3{fill:#231f20;}.cls-4{fill:#808285;}</style><clipPath id="clippath"><rect class="cls-1" width="850.39" height="193.68"/></clipPath></defs><g class="cls-2"><path class="cls-4" d="M372.8,128.68c-2.13,2.12-4.78,3.17-7.97,3.17s-5.85-1.06-7.97-3.17c-2.13-2.11-3.19-4.69-3.19-7.75s1.06-5.64,3.19-7.75c2.12-2.11,4.78-3.17,7.97-3.17s5.84,1.06,7.97,3.17c2.12,2.11,3.19,4.69,3.19,7.75s-1.06,5.64-3.19,7.75m-12.77-2.75c1.26,1.29,2.86,1.93,4.8,1.93s3.54-.64,4.8-1.93c1.26-1.29,1.89-2.95,1.89-5s-.63-3.71-1.89-5c-1.26-1.29-2.86-1.93-4.8-1.93s-3.54,.64-4.8,1.93c-1.26,1.29-1.89,2.96-1.89,5s.63,3.71,1.89,5"/><path class="cls-4" d="M386.23,108.58v1.76h5.58v3.59h-5.58v17.61h-4.46v-17.61h-2.67v-3.59h2.67v-1.64c0-2.23,.67-4,2.01-5.32,1.34-1.31,2.96-1.97,4.86-1.97s3.63,.7,5.2,2.11l-1.83,3.15c-.88-.93-1.8-1.4-2.75-1.4s-1.7,.3-2.23,.9c-.53,.6-.8,1.4-.8,2.41"/><path class="cls-4" d="M401.61,108.58v1.76h5.58v3.59h-5.58v17.61h-4.46v-17.61h-2.67v-3.59h2.67v-1.64c0-2.23,.67-4,2.01-5.32,1.34-1.31,2.97-1.97,4.86-1.97s3.63,.7,5.2,2.11l-1.83,3.15c-.88-.93-1.79-1.4-2.75-1.4s-1.7,.3-2.23,.9c-.53,.6-.8,1.4-.8,2.41"/><path class="cls-4" d="M431.22,122.89h-16.62c.11,1.54,.81,2.78,2.11,3.73,1.3,.94,2.79,1.42,4.46,1.42,2.66,0,4.68-.84,6.06-2.51l2.55,2.79c-2.29,2.37-5.26,3.55-8.93,3.55-2.98,0-5.51-.99-7.59-2.97-2.08-1.98-3.13-4.63-3.13-7.97s1.06-5.98,3.19-7.95c2.13-1.96,4.63-2.94,7.51-2.94s5.33,.87,7.35,2.61c2.02,1.74,3.03,4.13,3.03,7.19v3.07Zm-16.62-3.51h12.15c0-1.78-.56-3.15-1.68-4.11-1.11-.96-2.49-1.43-4.12-1.43s-3.1,.5-4.41,1.49c-1.3,1-1.95,2.35-1.95,4.05"/><path class="cls-4" d="M440.58,120.06v11.48h-4.46v-21.2h4.46v3.87c.72-1.3,1.71-2.33,2.97-3.07,1.26-.75,2.62-1.12,4.08-1.12,2.39,0,4.32,.73,5.8,2.19,1.47,1.46,2.21,3.58,2.21,6.34v12.99h-4.46v-11.63c0-3.9-1.62-5.86-4.87-5.86-1.54,0-2.88,.52-4.03,1.54-1.14,1.02-1.71,2.52-1.71,4.48"/><path class="cls-4" d="M467.08,113.92v10.76c0,1.01,.27,1.81,.8,2.41,.53,.6,1.28,.9,2.23,.9s1.87-.46,2.75-1.39l1.83,3.15c-1.57,1.41-3.3,2.11-5.2,2.11s-3.52-.66-4.86-1.98c-1.34-1.31-2.01-3.09-2.01-5.32v-10.64h-2.67v-3.59h2.67v-6.65h4.47v6.65h5.58v3.59h-5.58Z"/><rect class="cls-4" x="478.24" y="101.97" width="4.46" height="29.57"/><path class="cls-4" d="M489.44,106.11c-.56-.56-.83-1.22-.83-1.99s.27-1.43,.83-1.99c.56-.56,1.22-.84,1.99-.84s1.44,.28,1.99,.84c.56,.56,.84,1.22,.84,1.99s-.28,1.44-.84,1.99c-.56,.56-1.22,.84-1.99,.84s-1.44-.28-1.99-.84m4.18,25.43h-4.46v-21.2h4.46v21.2Z"/><path class="cls-4" d="M519.68,110.34v18.49c0,3.75-1.02,6.56-3.05,8.43-2.03,1.87-4.64,2.81-7.83,2.81s-6.07-1-8.65-2.99l2.11-3.38c2.08,1.57,4.17,2.35,6.28,2.35s3.79-.54,5.02-1.63c1.23-1.09,1.85-2.83,1.85-5.22v-2.71c-.67,1.25-1.62,2.24-2.85,2.99-1.24,.75-2.62,1.12-4.16,1.12-2.82,0-5.13-.98-6.93-2.95-1.81-1.97-2.71-4.41-2.71-7.33s.9-5.37,2.71-7.33c1.8-1.96,4.11-2.94,6.91-2.94s5.08,1.15,6.83,3.46v-3.14h4.47Zm-16.54,9.78c0,1.74,.54,3.24,1.62,4.5,1.07,1.26,2.52,1.9,4.34,1.9s3.29-.61,4.42-1.83c1.13-1.22,1.69-2.75,1.69-4.56s-.57-3.37-1.71-4.62c-1.14-1.26-2.62-1.9-4.42-1.9s-3.25,.65-4.32,1.95c-1.08,1.3-1.62,2.82-1.62,4.56"/><path class="cls-4" d="M531.64,113.92v10.76c0,1.01,.27,1.81,.79,2.41,.53,.6,1.28,.9,2.24,.9s1.87-.46,2.75-1.39l1.83,3.15c-1.57,1.41-3.3,2.11-5.2,2.11s-3.52-.66-4.86-1.98c-1.34-1.31-2.01-3.09-2.01-5.32v-10.64h-2.67v-3.59h2.67v-6.65h4.46v6.65h5.58v3.59h-5.58Z"/><path class="cls-4" d="M356.7,176.64c-1.99-2.02-2.99-4.67-2.99-7.97s1.02-5.92,3.07-7.89c2.04-1.97,4.48-2.95,7.31-2.95s5.11,1.2,6.83,3.59v-11.64h4.46v29.57h-4.46v-3.19c-1.65,2.34-4.05,3.51-7.21,3.51-2.68,0-5.02-1.01-7.01-3.03m1.47-7.79c0,2.03,.65,3.69,1.95,4.96,1.3,1.28,2.83,1.91,4.58,1.91s3.24-.64,4.46-1.93c1.22-1.29,1.83-2.94,1.83-4.96s-.61-3.7-1.83-5.06c-1.22-1.35-2.72-2.03-4.5-2.03s-3.31,.68-4.58,2.03c-1.28,1.36-1.91,3.05-1.91,5.08"/><path class="cls-4" d="M382.12,153.93c-.56-.56-.84-1.22-.84-2s.28-1.43,.84-1.99c.56-.55,1.22-.83,1.99-.83s1.44,.28,1.99,.83c.56,.56,.84,1.23,.84,1.99s-.28,1.44-.84,2c-.56,.56-1.22,.84-1.99,.84s-1.43-.28-1.99-.84m4.18,25.42h-4.46v-21.2h4.46v21.2Z"/><path class="cls-4" d="M412.37,158.15v18.49c0,3.75-1.02,6.56-3.05,8.43-2.03,1.87-4.64,2.81-7.83,2.81s-6.07-.99-8.65-2.99l2.11-3.39c2.07,1.57,4.17,2.35,6.28,2.35s3.79-.54,5.02-1.63c1.24-1.09,1.85-2.83,1.85-5.22v-2.71c-.66,1.25-1.61,2.25-2.85,2.99-1.24,.74-2.63,1.12-4.16,1.12-2.82,0-5.13-.98-6.93-2.95-1.8-1.97-2.71-4.41-2.71-7.33s.9-5.37,2.71-7.33c1.81-1.96,4.11-2.95,6.91-2.95s5.08,1.16,6.83,3.46v-3.14h4.46Zm-16.54,9.78c0,1.74,.54,3.24,1.61,4.5,1.08,1.26,2.52,1.9,4.34,1.9s3.29-.61,4.42-1.83c1.13-1.23,1.69-2.75,1.69-4.57s-.57-3.36-1.71-4.62c-1.15-1.26-2.62-1.9-4.42-1.9s-3.25,.65-4.32,1.95c-1.08,1.3-1.61,2.82-1.61,4.56"/><path class="cls-4" d="M419.1,153.93c-.56-.56-.83-1.22-.83-2s.28-1.43,.83-1.99c.56-.55,1.22-.83,1.99-.83s1.44,.28,2,.83c.56,.56,.84,1.23,.84,1.99s-.28,1.44-.84,2c-.56,.56-1.22,.84-2,.84s-1.43-.28-1.99-.84m4.19,25.42h-4.47v-21.2h4.47v21.2Z"/><path class="cls-4" d="M435.24,161.74v10.76c0,1.01,.27,1.81,.8,2.41,.53,.6,1.27,.9,2.23,.9s1.87-.46,2.75-1.39l1.83,3.14c-1.57,1.41-3.3,2.11-5.2,2.11s-3.52-.66-4.86-1.98c-1.34-1.31-2.01-3.09-2.01-5.32v-10.64h-2.67v-3.59h2.67v-6.66h4.46v6.66h5.58v3.59h-5.58Z"/><path class="cls-4" d="M463.58,179.35h-4.07v-2.83c-1.75,2.1-4.1,3.15-7.05,3.15-2.21,0-4.03-.62-5.48-1.87-1.45-1.25-2.17-2.91-2.17-5s.77-3.64,2.31-4.68c1.54-1.04,3.62-1.56,6.26-1.56h5.78v-.79c0-2.82-1.57-4.23-4.7-4.23-1.97,0-4.01,.72-6.14,2.15l-1.99-2.79c2.57-2.04,5.5-3.07,8.76-3.07,2.5,0,4.54,.63,6.12,1.89,1.58,1.26,2.37,3.25,2.37,5.96v13.67Zm-4.46-7.89v-1.79h-5.02c-3.21,0-4.82,1.01-4.82,3.03,0,1.03,.4,1.82,1.2,2.37,.8,.54,1.91,.82,3.33,.82s2.66-.4,3.72-1.2c1.06-.8,1.59-1.87,1.59-3.23"/><rect class="cls-4" x="469.79" y="149.78" width="4.46" height="29.57"/><path class="cls-4" d="M480.99,153.93c-.56-.56-.84-1.22-.84-2s.28-1.43,.84-1.99c.56-.55,1.22-.83,1.99-.83s1.44,.28,1.99,.83c.56,.56,.84,1.23,.84,1.99s-.28,1.44-.84,2c-.55,.56-1.22,.84-1.99,.84s-1.44-.28-1.99-.84m4.19,25.42h-4.46v-21.2h4.46v21.2Z"/><path class="cls-4" d="M506.73,173.02c0,2.02-.73,3.64-2.19,4.84-1.46,1.21-3.33,1.82-5.62,1.82-1.54,0-3.14-.28-4.8-.84-1.66-.56-3.13-1.34-4.41-2.35l2.15-3.47c2.47,1.86,4.86,2.79,7.17,2.79,1.01,0,1.81-.24,2.4-.7,.58-.47,.87-1.06,.87-1.77,0-1.06-1.41-2.02-4.22-2.87-.21-.08-.37-.13-.48-.16-4.41-1.2-6.61-3.19-6.61-5.98,0-1.97,.76-3.54,2.29-4.73,1.53-1.18,3.51-1.77,5.96-1.77s4.76,.72,6.94,2.15l-1.68,3.3c-1.73-1.14-3.6-1.71-5.62-1.71-1.06,0-1.93,.19-2.59,.58-.67,.39-1,.97-1,1.73,0,.69,.34,1.2,1.04,1.51,.48,.24,1.15,.47,2.01,.68,.86,.22,1.62,.43,2.29,.64,.67,.21,1.31,.45,1.93,.72,.62,.26,1.29,.63,2.01,1.12,1.44,.96,2.15,2.44,2.15,4.46"/><path class="cls-4" d="M531.51,170.71h-16.61c.11,1.54,.81,2.79,2.11,3.73,1.3,.94,2.79,1.41,4.46,1.41,2.65,0,4.67-.84,6.06-2.51l2.55,2.79c-2.28,2.36-5.26,3.55-8.93,3.55-2.97,0-5.5-.99-7.58-2.97-2.09-1.98-3.13-4.63-3.13-7.97s1.06-5.98,3.19-7.95c2.13-1.96,4.63-2.95,7.51-2.95s5.33,.87,7.35,2.61c2.02,1.74,3.03,4.14,3.03,7.19v3.07Zm-16.61-3.51h12.15c0-1.78-.55-3.15-1.67-4.11-1.12-.95-2.49-1.44-4.13-1.44s-3.1,.5-4.4,1.5c-1.3,1-1.95,2.35-1.95,4.05"/><path class="cls-4" d="M547.54,162.34c-2.21,0-3.86,.72-4.98,2.15-1.12,1.44-1.67,3.36-1.67,5.78v9.09h-4.46v-21.2h4.46v4.26c.72-1.33,1.7-2.42,2.93-3.27,1.24-.85,2.54-1.29,3.93-1.32l.04,4.5h-.24Z"/><path class="cls-4" d="M552.52,153.93c-.56-.56-.84-1.22-.84-2s.28-1.43,.84-1.99c.56-.55,1.22-.83,1.99-.83s1.43,.28,1.99,.83c.56,.56,.84,1.23,.84,1.99s-.28,1.44-.84,2c-.56,.56-1.23,.84-1.99,.84s-1.44-.28-1.99-.84m4.19,25.42h-4.46v-21.2h4.46v21.2Z"/><path class="cls-4" d="M567.62,167.87v11.48h-4.47v-21.2h4.47v3.87c.71-1.31,1.7-2.33,2.96-3.07,1.26-.75,2.62-1.12,4.09-1.12,2.39,0,4.32,.73,5.8,2.19,1.47,1.46,2.21,3.57,2.21,6.34v12.99h-4.46v-11.64c0-3.9-1.62-5.86-4.86-5.86-1.54,0-2.88,.52-4.02,1.54-1.14,1.02-1.71,2.52-1.71,4.48"/><path class="cls-4" d="M608.51,158.15v18.49c0,3.75-1.02,6.56-3.05,8.43-2.03,1.87-4.64,2.81-7.83,2.81s-6.07-.99-8.65-2.99l2.11-3.39c2.08,1.57,4.17,2.35,6.28,2.35s3.78-.54,5.02-1.63c1.23-1.09,1.85-2.83,1.85-5.22v-2.71c-.66,1.25-1.61,2.25-2.85,2.99-1.24,.74-2.62,1.12-4.16,1.12-2.82,0-5.13-.98-6.93-2.95-1.81-1.97-2.71-4.41-2.71-7.33s.9-5.37,2.71-7.33c1.8-1.96,4.11-2.95,6.91-2.95s5.08,1.16,6.83,3.46v-3.14h4.46Zm-16.54,9.78c0,1.74,.54,3.24,1.61,4.5,1.08,1.26,2.52,1.9,4.34,1.9s3.3-.61,4.42-1.83c1.13-1.23,1.7-2.75,1.7-4.57s-.57-3.36-1.71-4.62c-1.15-1.26-2.62-1.9-4.43-1.9s-3.24,.65-4.32,1.95c-1.08,1.3-1.61,2.82-1.61,4.56"/><path class="cls-4" d="M630.07,173.02c0,2.02-.73,3.64-2.19,4.84-1.46,1.21-3.34,1.82-5.62,1.82-1.54,0-3.15-.28-4.81-.84-1.66-.56-3.12-1.34-4.4-2.35l2.15-3.47c2.47,1.86,4.86,2.79,7.17,2.79,1.01,0,1.81-.24,2.39-.7,.59-.47,.88-1.06,.88-1.77,0-1.06-1.41-2.02-4.22-2.87-.22-.08-.38-.13-.48-.16-4.41-1.2-6.61-3.19-6.61-5.98,0-1.97,.76-3.54,2.29-4.73,1.53-1.18,3.52-1.77,5.96-1.77s4.76,.72,6.93,2.15l-1.68,3.3c-1.73-1.14-3.6-1.71-5.62-1.71-1.06,0-1.93,.19-2.59,.58-.66,.39-1,.97-1,1.73,0,.69,.35,1.2,1.04,1.51,.48,.24,1.15,.47,2.01,.68,.86,.22,1.63,.43,2.29,.64,.66,.21,1.31,.45,1.93,.72,.62,.26,1.3,.63,2.01,1.12,1.43,.96,2.15,2.44,2.15,4.46"/><path class="cls-4" d="M640.62,156.4v1.75h5.58v3.59h-5.58v17.61h-4.46v-17.61h-2.67v-3.59h2.67v-1.64c0-2.23,.67-4,2.01-5.32,1.34-1.32,2.96-1.97,4.86-1.97s3.63,.7,5.2,2.11l-1.83,3.15c-.88-.93-1.8-1.4-2.75-1.4s-1.7,.3-2.23,.9c-.53,.59-.8,1.4-.8,2.41"/><path class="cls-4" d="M683.54,170.19h-15.82c.03,1.7,.64,3.07,1.85,4.11,1.21,1.04,2.65,1.55,4.33,1.55,2.39,0,4.28-.84,5.66-2.51l2.55,2.79c-2.28,2.36-5.14,3.55-8.59,3.55s-6.13-1.28-8.07-3.83c-2.13,2.55-4.95,3.83-8.49,3.83-2.24,0-4.13-.63-5.7-1.89-1.57-1.26-2.35-2.93-2.35-5s.76-3.6,2.29-4.58c1.52-.98,3.62-1.47,6.28-1.47h5.77v-.95c0-2.82-1.56-4.23-4.7-4.23-1.97,0-4.01,.72-6.14,2.15l-1.99-2.79c2.58-2.04,5.5-3.06,8.77-3.06s5.62,.98,7.05,2.94c1.92-1.96,4.32-2.94,7.24-2.94s5.31,.87,7.21,2.61c1.9,1.74,2.85,4.13,2.85,7.19v2.55Zm-20.32,1.28v-1.28h-5.02c-2.47,0-3.96,.37-4.46,1.12-.24,.38-.35,.84-.35,1.4,0,1.03,.4,1.82,1.2,2.37,.8,.54,1.91,.82,3.33,.82s2.66-.4,3.72-1.19c1.06-.8,1.59-1.88,1.59-3.23m14.23-8.51c-.98-.86-2.23-1.29-3.75-1.29s-2.85,.45-4.01,1.35c-1.15,.9-1.8,2.14-1.93,3.71l11.32,.04c-.11-1.68-.65-2.95-1.63-3.81"/><rect class="cls-4" x="688.44" y="149.78" width="4.46" height="29.57"/><rect class="cls-4" x="699.36" y="149.78" width="4.46" height="29.57"/><path class="cls-4" d="M730,170.71h-16.61c.11,1.54,.81,2.79,2.11,3.73,1.3,.94,2.79,1.41,4.46,1.41,2.65,0,4.67-.84,6.06-2.51l2.55,2.79c-2.28,2.36-5.26,3.55-8.93,3.55-2.97,0-5.5-.99-7.59-2.97-2.09-1.98-3.13-4.63-3.13-7.97s1.06-5.98,3.19-7.95c2.13-1.96,4.63-2.95,7.51-2.95s5.33,.87,7.35,2.61c2.02,1.74,3.03,4.14,3.03,7.19v3.07Zm-16.61-3.51h12.15c0-1.78-.55-3.15-1.67-4.11-1.11-.95-2.49-1.44-4.12-1.44s-3.1,.5-4.4,1.5c-1.3,1-1.96,2.35-1.96,4.05"/><path class="cls-4" d="M750.01,173.02c0,2.02-.73,3.64-2.19,4.84-1.46,1.21-3.33,1.82-5.62,1.82-1.54,0-3.14-.28-4.8-.84-1.66-.56-3.13-1.34-4.41-2.35l2.15-3.47c2.47,1.86,4.86,2.79,7.17,2.79,1.01,0,1.81-.24,2.39-.7,.59-.47,.88-1.06,.88-1.77,0-1.06-1.41-2.02-4.22-2.87-.21-.08-.37-.13-.48-.16-4.41-1.2-6.61-3.19-6.61-5.98,0-1.97,.76-3.54,2.29-4.73,1.53-1.18,3.51-1.77,5.96-1.77s4.75,.72,6.93,2.15l-1.67,3.3c-1.73-1.14-3.6-1.71-5.62-1.71-1.06,0-1.93,.19-2.59,.58-.67,.39-1,.97-1,1.73,0,.69,.35,1.2,1.04,1.51,.48,.24,1.15,.47,2.01,.68,.87,.22,1.63,.43,2.29,.64,.66,.21,1.31,.45,1.93,.72,.62,.26,1.3,.63,2.01,1.12,1.43,.96,2.15,2.44,2.15,4.46"/><path class="cls-4" d="M770.18,173.02c0,2.02-.73,3.64-2.19,4.84-1.46,1.21-3.33,1.82-5.62,1.82-1.54,0-3.15-.28-4.8-.84-1.66-.56-3.13-1.34-4.41-2.35l2.15-3.47c2.47,1.86,4.86,2.79,7.17,2.79,1.01,0,1.81-.24,2.39-.7,.59-.47,.88-1.06,.88-1.77,0-1.06-1.4-2.02-4.22-2.87-.21-.08-.37-.13-.48-.16-4.41-1.2-6.61-3.19-6.61-5.98,0-1.97,.76-3.54,2.29-4.73,1.53-1.18,3.51-1.77,5.96-1.77s4.75,.72,6.93,2.15l-1.67,3.3c-1.73-1.14-3.6-1.71-5.62-1.71-1.06,0-1.93,.19-2.59,.58-.67,.39-1,.97-1,1.73,0,.69,.35,1.2,1.04,1.51,.48,.24,1.15,.47,2.01,.68,.86,.22,1.63,.43,2.29,.64,.66,.21,1.31,.45,1.93,.72,.62,.26,1.3,.63,2.01,1.12,1.43,.96,2.15,2.44,2.15,4.46"/><polygon class="cls-4" points="779.7 179.35 775.23 179.35 775.23 149.78 779.7 149.78 779.7 167.16 788.31 158.15 794.05 158.15 786 166.56 794.64 179.35 789.22 179.35 782.93 170.07 779.7 173.34 779.7 179.35"/><path class="cls-4" d="M815.24,179.35h-4.06v-2.83c-1.75,2.1-4.1,3.15-7.05,3.15-2.2,0-4.03-.62-5.48-1.87-1.45-1.25-2.18-2.91-2.18-5s.77-3.64,2.31-4.68c1.54-1.04,3.62-1.56,6.26-1.56h5.77v-.79c0-2.82-1.57-4.23-4.7-4.23-1.97,0-4.01,.72-6.14,2.15l-1.99-2.79c2.57-2.04,5.5-3.07,8.76-3.07,2.5,0,4.54,.63,6.12,1.89,1.58,1.26,2.37,3.25,2.37,5.96v13.67Zm-4.46-7.89v-1.79h-5.02c-3.21,0-4.82,1.01-4.82,3.03,0,1.03,.4,1.82,1.2,2.37,.8,.54,1.91,.82,3.33,.82s2.66-.4,3.72-1.2c1.07-.8,1.6-1.87,1.6-3.23"/><path class="cls-4" d="M832.81,157.83c2.85,0,5.28,.99,7.29,2.95,2.02,1.97,3.03,4.58,3.03,7.85s-1,5.92-3.01,7.97c-2.01,2.05-4.34,3.07-7.02,3.07s-5.07-1.17-7.19-3.51v3.18h-4.46v-29.57h4.46v12.08c1.76-2.69,4.05-4.03,6.89-4.03m-6.97,10.96c0,2.02,.61,3.67,1.83,4.96,1.22,1.29,2.71,1.94,4.46,1.94s3.28-.64,4.58-1.92c1.3-1.27,1.95-2.93,1.95-4.96s-.64-3.72-1.91-5.06c-1.27-1.34-2.81-2.01-4.58-2.01s-3.28,.67-4.5,2.01c-1.22,1.34-1.83,3.02-1.83,5.04"/><path class="cls-3" d="M308.83,59.14l12.03-25.53c-15.96-10.56-37.8-17.67-60.14-17.67-37.31,0-62.6,18.41-62.6,47.87,0,61.13,92.79,39.77,92.79,78.06,0,13.25-12.03,20.87-32.16,20.87-18.41,0-40.5-8.84-58.18-25.04l-12.52,25.04c17.67,16.2,43.2,27.25,70.2,27.25,37.8,0,64.81-18.9,64.81-49.58,.24-61.86-92.54-41.73-92.54-79.29,0-11.54,11.05-17.92,27.98-17.92,13.01,0,31.67,4.67,50.32,15.96"/><path class="cls-3" d="M185.6,103.08c0-35.19-20.47-64.41-50.95-78.15l-11.39,24.43c19.37,10.02,32.64,30.03,32.64,53.72,0,34.12-27.49,61.12-61.12,61.12s-61.86-27-61.86-61.12c0-23.63,13.42-43.59,32.92-53.65l-11.44-24.53C23.92,38.59,3.46,67.71,3.46,103.08c0,49.09,39.77,87.14,91.07,87.14s91.07-38.05,91.07-87.14"/><rect class="cls-3" x="81.21" y="4.53" width="26.47" height="72.28"/><path class="cls-3" d="M374.49,43.26l-20.97,21.48v11.87h50.44v-14.33h-28.24l12.89-13.4c5.05-5.25,8.51-9.57,10.39-12.94,1.87-3.38,2.81-6.91,2.81-10.59,0-6.75-2.34-12.09-7.01-16.01-4.67-3.92-10.09-5.88-16.27-5.88s-11.25,1.33-15.24,3.99c-3.99,2.66-7.66,6.58-11,11.77l12.79,7.57c4.03-6.41,8.29-9.62,12.79-9.62,2.46,0,4.47,.8,6.04,2.4,1.57,1.6,2.35,3.6,2.35,5.98s-.91,4.86-2.71,7.42c-1.81,2.56-4.83,5.98-9.06,10.28"/></g></svg>